ISO-10303-21;
HEADER;
/*Generated by software containing ST-Developer
 * from STEP Tools, Inc. (www.steptools.com) 
 */
/*OPTION: using custom renumber hook */
/*description */
/*implementation_level */
FILE_DESCRIPTION(('STEP AP242 Edition 2','STEP AP242 Edition 2''CAx-IF Rec.Pracs.---Representation and Presentation of Product Manufa
cturing Information (PMI)---4.0---2014-10-13','STEP AP242 Edition 2''CAx-IF Rec.Pracs.---Representation and Presentation of Product Manufa
cturing Information (PMI)---4.0---2014-10-13''CAx-IF Rec.Pracs.---3D Tessellated Geometry---0.4---2014-09-14','STEP AP242 Edition 2''CAx-IF Rec.Pracs.---Representation and Presentation of Product Manufa
cturing Information (PMI)---4.0---2014-10-13''CAx-IF Rec.Pracs.---3D Tessellated Geometry---0.4---2014-09-14''2;1','STEP AP242 Edition 2''CAx-IF Rec.Pracs.---Representation and Presentation of Product Manufa
cturing Information (PMI)---4.0---2014-10-13''CAx-IF Rec.Pracs.---3D Tessellated Geometry---0.4---2014-09-14''2;1''CAx-IF Rec.Pracs.---User Defined Attributes---1.5---2016-08-15'),'2;1');
/*name */
/*time_stamp */
/*author */
/*organization */
/*preprocessor_version */
/*originating_system */
/*authorisation */
FILE_NAME('/vol/tmp/translate-13599325527039126724/Dosing Funnel.step','2026-04-02T21:39:54',(''),(''),'ST-DEVELOPER v20','ONSHAPE BY PTC INC, 1.212','  ');
FILE_SCHEMA(('AP242_MANAGED_MODEL_BASED_3D_ENGINEERING_MIM_LF { 1 0 10303 442 3 1 4 }'));
ENDSEC;
DATA;
#10=SHAPE_REPRESENTATION_RELATIONSHIP('','',#122,#11);
#11=ADVANCED_BREP_SHAPE_REPRESENTATION('',(#120),#209);
#12=CONICAL_SURFACE('',#140,0.0325,0.349065850398866);
#13=CONICAL_SURFACE('',#141,0.0325,0.785398163397448);
#14=PLANE('',#127);
#15=PLANE('',#137);
#16=PLANE('',#139);
#17=ORIENTED_EDGE('',*,*,#35,.T.);
#18=ORIENTED_EDGE('',*,*,#36,.F.);
#19=ORIENTED_EDGE('',*,*,#36,.T.);
#20=ORIENTED_EDGE('',*,*,#37,.F.);
#21=ORIENTED_EDGE('',*,*,#38,.F.);
#22=ORIENTED_EDGE('',*,*,#37,.T.);
#23=ORIENTED_EDGE('',*,*,#39,.T.);
#24=ORIENTED_EDGE('',*,*,#40,.T.);
#25=ORIENTED_EDGE('',*,*,#41,.F.);
#26=ORIENTED_EDGE('',*,*,#42,.T.);
#27=ORIENTED_EDGE('',*,*,#43,.T.);
#28=ORIENTED_EDGE('',*,*,#41,.T.);
#29=ORIENTED_EDGE('',*,*,#38,.T.);
#30=ORIENTED_EDGE('',*,*,#42,.F.);
#31=ORIENTED_EDGE('',*,*,#35,.F.);
#32=ORIENTED_EDGE('',*,*,#40,.F.);
#33=ORIENTED_EDGE('',*,*,#43,.F.);
#34=ORIENTED_EDGE('',*,*,#39,.F.);
#35=EDGE_CURVE('',#44,#44,#53,.T.);
#36=EDGE_CURVE('',#45,#45,#54,.T.);
#37=EDGE_CURVE('',#46,#46,#55,.T.);
#38=EDGE_CURVE('',#47,#47,#56,.T.);
#39=EDGE_CURVE('',#48,#48,#57,.T.);
#40=EDGE_CURVE('',#49,#49,#58,.F.);
#41=EDGE_CURVE('',#50,#50,#59,.T.);
#42=EDGE_CURVE('',#51,#51,#60,.T.);
#43=EDGE_CURVE('',#52,#52,#61,.F.);
#44=VERTEX_POINT('',#183);
#45=VERTEX_POINT('',#185);
#46=VERTEX_POINT('',#188);
#47=VERTEX_POINT('',#191);
#48=VERTEX_POINT('',#194);
#49=VERTEX_POINT('',#196);
#50=VERTEX_POINT('',#199);
#51=VERTEX_POINT('',#201);
#52=VERTEX_POINT('',#204);
#53=CIRCLE('',#125,0.0275);
#54=CIRCLE('',#126,0.0275);
#55=CIRCLE('',#128,0.0325);
#56=CIRCLE('',#130,0.0325);
#57=CIRCLE('',#132,0.0325);
#58=CIRCLE('',#133,0.0325);
#59=CIRCLE('',#135,0.036);
#60=CIRCLE('',#136,0.036);
#61=CIRCLE('',#138,0.0347);
#62=EDGE_LOOP('',(#17));
#63=EDGE_LOOP('',(#18));
#64=EDGE_LOOP('',(#19));
#65=EDGE_LOOP('',(#20));
#66=EDGE_LOOP('',(#21));
#67=EDGE_LOOP('',(#22));
#68=EDGE_LOOP('',(#23));
#69=EDGE_LOOP('',(#24));
#70=EDGE_LOOP('',(#25));
#71=EDGE_LOOP('',(#26));
#72=EDGE_LOOP('',(#27));
#73=EDGE_LOOP('',(#28));
#74=EDGE_LOOP('',(#29));
#75=EDGE_LOOP('',(#30));
#76=EDGE_LOOP('',(#31));
#77=EDGE_LOOP('',(#32));
#78=EDGE_LOOP('',(#33));
#79=EDGE_LOOP('',(#34));
#80=FACE_BOUND('',#62,.T.);
#81=FACE_BOUND('',#63,.T.);
#82=FACE_BOUND('',#64,.T.);
#83=FACE_BOUND('',#65,.T.);
#84=FACE_BOUND('',#66,.T.);
#85=FACE_BOUND('',#67,.T.);
#86=FACE_BOUND('',#68,.T.);
#87=FACE_BOUND('',#69,.T.);
#88=FACE_BOUND('',#70,.T.);
#89=FACE_BOUND('',#71,.T.);
#90=FACE_BOUND('',#72,.T.);
#91=FACE_BOUND('',#73,.T.);
#92=FACE_BOUND('',#74,.T.);
#93=FACE_BOUND('',#75,.T.);
#94=FACE_BOUND('',#76,.T.);
#95=FACE_BOUND('',#77,.T.);
#96=FACE_BOUND('',#78,.T.);
#97=FACE_BOUND('',#79,.T.);
#98=CYLINDRICAL_SURFACE('',#124,0.0275);
#99=CYLINDRICAL_SURFACE('',#129,0.0325);
#100=CYLINDRICAL_SURFACE('',#131,0.0325);
#101=CYLINDRICAL_SURFACE('',#134,0.036);
#102=ADVANCED_FACE('',(#80,#81),#98,.F.);
#103=ADVANCED_FACE('',(#82,#83),#14,.F.);
#104=ADVANCED_FACE('',(#84,#85),#99,.F.);
#105=ADVANCED_FACE('',(#86,#87),#100,.F.);
#106=ADVANCED_FACE('',(#88,#89),#101,.T.);
#107=ADVANCED_FACE('',(#90,#91),#15,.T.);
#108=ADVANCED_FACE('',(#92,#93),#16,.F.);
#109=ADVANCED_FACE('',(#94,#95),#12,.F.);
#110=ADVANCED_FACE('',(#96,#97),#13,.F.);
#111=CLOSED_SHELL('',(#102,#103,#104,#105,#106,#107,#108,#109,#110));
#112=STYLED_ITEM('',(#113),#120);
#113=PRESENTATION_STYLE_ASSIGNMENT((#114));
#114=SURFACE_STYLE_USAGE(.BOTH.,#115);
#115=SURFACE_SIDE_STYLE('',(#116));
#116=SURFACE_STYLE_FILL_AREA(#117);
#117=FILL_AREA_STYLE('',(#118));
#118=FILL_AREA_STYLE_COLOUR('',#119);
#119=COLOUR_RGB('',0.615686274509804,0.811764705882353,0.929411764705882);
#120=MANIFOLD_SOLID_BREP('Part 1',#111);
#121=SHAPE_DEFINITION_REPRESENTATION(#214,#122);
#122=SHAPE_REPRESENTATION('Part 1',(#123),#209);
#123=AXIS2_PLACEMENT_3D('',#180,#142,#143);
#124=AXIS2_PLACEMENT_3D('',#181,#144,#145);
#125=AXIS2_PLACEMENT_3D('',#182,#146,#147);
#126=AXIS2_PLACEMENT_3D('',#184,#148,#149);
#127=AXIS2_PLACEMENT_3D('',#186,#150,#151);
#128=AXIS2_PLACEMENT_3D('',#187,#152,#153);
#129=AXIS2_PLACEMENT_3D('',#189,#154,#155);
#130=AXIS2_PLACEMENT_3D('',#190,#156,#157);
#131=AXIS2_PLACEMENT_3D('',#192,#158,#159);
#132=AXIS2_PLACEMENT_3D('',#193,#160,#161);
#133=AXIS2_PLACEMENT_3D('',#195,#162,#163);
#134=AXIS2_PLACEMENT_3D('',#197,#164,#165);
#135=AXIS2_PLACEMENT_3D('',#198,#166,#167);
#136=AXIS2_PLACEMENT_3D('',#200,#168,#169);
#137=AXIS2_PLACEMENT_3D('',#202,#170,#171);
#138=AXIS2_PLACEMENT_3D('',#203,#172,#173);
#139=AXIS2_PLACEMENT_3D('',#205,#174,#175);
#140=AXIS2_PLACEMENT_3D('',#206,#176,#177);
#141=AXIS2_PLACEMENT_3D('',#207,#178,#179);
#142=DIRECTION('',(0.,0.,1.));
#143=DIRECTION('',(1.,0.,0.));
#144=DIRECTION('',(0.,0.,-1.));
#145=DIRECTION('',(-1.,0.,0.));
#146=DIRECTION('',(0.,0.,1.));
#147=DIRECTION('',(1.,0.,0.));
#148=DIRECTION('',(0.,0.,1.));
#149=DIRECTION('',(1.,0.,0.));
#150=DIRECTION('',(0.,0.,1.));
#151=DIRECTION('',(1.,0.,0.));
#152=DIRECTION('',(0.,0.,1.));
#153=DIRECTION('',(1.,0.,0.));
#154=DIRECTION('',(0.,0.,-1.));
#155=DIRECTION('',(-1.,0.,0.));
#156=DIRECTION('',(0.,0.,1.));
#157=DIRECTION('',(1.,0.,0.));
#158=DIRECTION('',(0.,0.,-1.));
#159=DIRECTION('',(-1.,0.,0.));
#160=DIRECTION('',(0.,0.,1.));
#161=DIRECTION('',(1.,0.,0.));
#162=DIRECTION('',(0.,0.,1.));
#163=DIRECTION('',(1.,0.,0.));
#164=DIRECTION('',(0.,0.,-1.));
#165=DIRECTION('',(-1.,0.,0.));
#166=DIRECTION('',(0.,0.,1.));
#167=DIRECTION('',(1.,0.,0.));
#168=DIRECTION('',(0.,0.,1.));
#169=DIRECTION('',(1.,0.,0.));
#170=DIRECTION('',(0.,0.,1.));
#171=DIRECTION('',(1.,0.,0.));
#172=DIRECTION('',(0.,0.,1.));
#173=DIRECTION('',(1.,0.,0.));
#174=DIRECTION('',(0.,0.,1.));
#175=DIRECTION('',(1.,0.,0.));
#176=DIRECTION('',(0.,0.,1.));
#177=DIRECTION('',(1.,0.,0.));
#178=DIRECTION('',(0.,0.,1.));
#179=DIRECTION('',(1.,0.,0.));
#180=CARTESIAN_POINT('',(0.,0.,0.));
#181=CARTESIAN_POINT('',(0.,1.68388934882761E-18,0.009));
#182=CARTESIAN_POINT('',(0.,1.68388934882761E-18,0.009));
#183=CARTESIAN_POINT('',(0.0275,1.68388934882761E-18,0.009));
#184=CARTESIAN_POINT('',(0.,1.68388934882761E-18,0.003));
#185=CARTESIAN_POINT('',(0.0275,1.68388934882761E-18,0.003));
#186=CARTESIAN_POINT('',(0.,0.,0.003));
#187=CARTESIAN_POINT('',(0.,1.99005104861445E-18,0.003));
#188=CARTESIAN_POINT('',(0.0325,1.99005104861445E-18,0.003));
#189=CARTESIAN_POINT('',(0.,1.99005104861445E-18,0.025));
#190=CARTESIAN_POINT('',(0.,1.99005104861445E-18,0.));
#191=CARTESIAN_POINT('',(0.0325,1.99005104861445E-18,0.));
#192=CARTESIAN_POINT('',(0.,1.99005104861445E-18,0.025));
#193=CARTESIAN_POINT('',(0.,1.99005104861445E-18,0.0228));
#194=CARTESIAN_POINT('',(0.0325,1.99005104861445E-18,0.0228));
#195=CARTESIAN_POINT('',(0.,1.99005104861445E-18,0.0227373870972731));
#196=CARTESIAN_POINT('',(0.0325,1.99005104861445E-18,0.0227373870972731));
#197=CARTESIAN_POINT('',(0.,2.20436423846524E-18,0.025));
#198=CARTESIAN_POINT('',(0.,2.20436423846524E-18,0.025));
#199=CARTESIAN_POINT('',(0.036,2.20436423846524E-18,0.025));
#200=CARTESIAN_POINT('',(0.,2.20436423846524E-18,0.));
#201=CARTESIAN_POINT('',(0.036,2.20436423846524E-18,0.));
#202=CARTESIAN_POINT('',(0.,0.,0.025));
#203=CARTESIAN_POINT('',(0.,1.99005104861445E-18,0.025));
#204=CARTESIAN_POINT('',(0.0347,1.99005104861445E-18,0.025));
#205=CARTESIAN_POINT('',(0.,0.,0.));
#206=CARTESIAN_POINT('',(0.,1.99005104861445E-18,0.0227373870972731));
#207=CARTESIAN_POINT('',(0.,1.99005104861445E-18,0.0228));
#208=MECHANICAL_DESIGN_GEOMETRIC_PRESENTATION_REPRESENTATION('',(#112),#209);
#209=(
GEOMETRIC_REPRESENTATION_CONTEXT(3)
GLOBAL_UNCERTAINTY_ASSIGNED_CONTEXT((#210))
GLOBAL_UNIT_ASSIGNED_CONTEXT((#213,#212,#211))
REPRESENTATION_CONTEXT('Part 1','TOP_LEVEL_ASSEMBLY_PART')
);
#210=UNCERTAINTY_MEASURE_WITH_UNIT(LENGTH_MEASURE(1.E-08),#213,'DISTANCE_ACCURACY_VALUE','Maximum Tolerance applied to model');
#211=(
NAMED_UNIT(*)
SI_UNIT($,.STERADIAN.)
SOLID_ANGLE_UNIT()
);
#212=(
NAMED_UNIT(*)
PLANE_ANGLE_UNIT()
SI_UNIT($,.RADIAN.)
);
#213=(
LENGTH_UNIT()
NAMED_UNIT(*)
SI_UNIT($,.METRE.)
);
#214=PRODUCT_DEFINITION_SHAPE('','',#215);
#215=PRODUCT_DEFINITION('','',#217,#216);
#216=PRODUCT_DEFINITION_CONTEXT('',#223,'design');
#217=PRODUCT_DEFINITION_FORMATION_WITH_SPECIFIED_SOURCE('','',#219,.NOT_KNOWN.);
#218=PRODUCT_RELATED_PRODUCT_CATEGORY('','',(#219));
#219=PRODUCT('Part 1','Part 1','Part 1',(#221));
#220=PRODUCT_CATEGORY('','');
#221=PRODUCT_CONTEXT('',#223,'mechanical');
#222=APPLICATION_PROTOCOL_DEFINITION('international standard','ap242_managed_model_based_3d_engineering',2020,#223);
#223=APPLICATION_CONTEXT('managed model based 3d engineering');
ENDSEC;
END-ISO-10303-21;
