ISO-10303-21;
HEADER;
/*Generated by software containing ST-Developer
 * from STEP Tools, Inc. (www.steptools.com) 
 */
/*OPTION: using custom renumber hook */
/*description */
/*implementation_level */
FILE_DESCRIPTION(('STEP AP242 Edition 2','STEP AP242 Edition 2''CAx-IF Rec.Pracs.---Representation and Presentation of Product Manufa
cturing Information (PMI)---4.0---2014-10-13','STEP AP242 Edition 2''CAx-IF Rec.Pracs.---Representation and Presentation of Product Manufa
cturing Information (PMI)---4.0---2014-10-13''CAx-IF Rec.Pracs.---3D Tessellated Geometry---0.4---2014-09-14','STEP AP242 Edition 2''CAx-IF Rec.Pracs.---Representation and Presentation of Product Manufa
cturing Information (PMI)---4.0---2014-10-13''CAx-IF Rec.Pracs.---3D Tessellated Geometry---0.4---2014-09-14''2;1','STEP AP242 Edition 2''CAx-IF Rec.Pracs.---Representation and Presentation of Product Manufa
cturing Information (PMI)---4.0---2014-10-13''CAx-IF Rec.Pracs.---3D Tessellated Geometry---0.4---2014-09-14''2;1''CAx-IF Rec.Pracs.---User Defined Attributes---1.5---2016-08-15'),'2;1');
/*name */
/*time_stamp */
/*author */
/*organization */
/*preprocessor_version */
/*originating_system */
/*authorisation */
FILE_NAME('/vol/tmp/translate-5131212223229320278/WDT Tool.step','2026-04-02T21:39:49',(''),(''),'ST-DEVELOPER v20','ONSHAPE BY PTC INC, 1.212','  ');
FILE_SCHEMA(('AP242_MANAGED_MODEL_BASED_3D_ENGINEERING_MIM_LF { 1 0 10303 442 3 1 4 }'));
ENDSEC;
DATA;
#10=SHAPE_REPRESENTATION_RELATIONSHIP('','',#443,#11);
#11=ADVANCED_BREP_SHAPE_REPRESENTATION('',(#441),#795);
#12=CONICAL_SURFACE('',#517,0.0085,0.0523598775598298);
#13=CONICAL_SURFACE('',#521,0.0125,0.244346095279206);
#14=PLANE('',#448);
#15=PLANE('',#468);
#16=PLANE('',#471);
#17=PLANE('',#474);
#18=PLANE('',#477);
#19=PLANE('',#480);
#20=PLANE('',#483);
#21=PLANE('',#486);
#22=PLANE('',#489);
#23=PLANE('',#492);
#24=PLANE('',#495);
#25=PLANE('',#498);
#26=PLANE('',#501);
#27=PLANE('',#504);
#28=PLANE('',#507);
#29=PLANE('',#510);
#30=PLANE('',#513);
#31=PLANE('',#516);
#32=PLANE('',#520);
#33=ORIENTED_EDGE('',*,*,#109,.T.);
#34=ORIENTED_EDGE('',*,*,#110,.F.);
#35=ORIENTED_EDGE('',*,*,#111,.F.);
#36=ORIENTED_EDGE('',*,*,#112,.F.);
#37=ORIENTED_EDGE('',*,*,#113,.F.);
#38=ORIENTED_EDGE('',*,*,#114,.F.);
#39=ORIENTED_EDGE('',*,*,#115,.F.);
#40=ORIENTED_EDGE('',*,*,#116,.F.);
#41=ORIENTED_EDGE('',*,*,#117,.F.);
#42=ORIENTED_EDGE('',*,*,#118,.F.);
#43=ORIENTED_EDGE('',*,*,#119,.F.);
#44=ORIENTED_EDGE('',*,*,#120,.F.);
#45=ORIENTED_EDGE('',*,*,#121,.F.);
#46=ORIENTED_EDGE('',*,*,#122,.F.);
#47=ORIENTED_EDGE('',*,*,#123,.F.);
#48=ORIENTED_EDGE('',*,*,#124,.F.);
#49=ORIENTED_EDGE('',*,*,#125,.F.);
#50=ORIENTED_EDGE('',*,*,#126,.F.);
#51=ORIENTED_EDGE('',*,*,#127,.F.);
#52=ORIENTED_EDGE('',*,*,#110,.T.);
#53=ORIENTED_EDGE('',*,*,#128,.F.);
#54=ORIENTED_EDGE('',*,*,#127,.T.);
#55=ORIENTED_EDGE('',*,*,#128,.T.);
#56=ORIENTED_EDGE('',*,*,#129,.F.);
#57=ORIENTED_EDGE('',*,*,#126,.T.);
#58=ORIENTED_EDGE('',*,*,#129,.T.);
#59=ORIENTED_EDGE('',*,*,#130,.F.);
#60=ORIENTED_EDGE('',*,*,#125,.T.);
#61=ORIENTED_EDGE('',*,*,#130,.T.);
#62=ORIENTED_EDGE('',*,*,#131,.F.);
#63=ORIENTED_EDGE('',*,*,#124,.T.);
#64=ORIENTED_EDGE('',*,*,#131,.T.);
#65=ORIENTED_EDGE('',*,*,#132,.F.);
#66=ORIENTED_EDGE('',*,*,#123,.T.);
#67=ORIENTED_EDGE('',*,*,#132,.T.);
#68=ORIENTED_EDGE('',*,*,#133,.F.);
#69=ORIENTED_EDGE('',*,*,#122,.T.);
#70=ORIENTED_EDGE('',*,*,#133,.T.);
#71=ORIENTED_EDGE('',*,*,#134,.F.);
#72=ORIENTED_EDGE('',*,*,#121,.T.);
#73=ORIENTED_EDGE('',*,*,#134,.T.);
#74=ORIENTED_EDGE('',*,*,#135,.F.);
#75=ORIENTED_EDGE('',*,*,#120,.T.);
#76=ORIENTED_EDGE('',*,*,#135,.T.);
#77=ORIENTED_EDGE('',*,*,#136,.F.);
#78=ORIENTED_EDGE('',*,*,#119,.T.);
#79=ORIENTED_EDGE('',*,*,#136,.T.);
#80=ORIENTED_EDGE('',*,*,#137,.F.);
#81=ORIENTED_EDGE('',*,*,#118,.T.);
#82=ORIENTED_EDGE('',*,*,#137,.T.);
#83=ORIENTED_EDGE('',*,*,#138,.F.);
#84=ORIENTED_EDGE('',*,*,#117,.T.);
#85=ORIENTED_EDGE('',*,*,#138,.T.);
#86=ORIENTED_EDGE('',*,*,#139,.F.);
#87=ORIENTED_EDGE('',*,*,#116,.T.);
#88=ORIENTED_EDGE('',*,*,#139,.T.);
#89=ORIENTED_EDGE('',*,*,#140,.F.);
#90=ORIENTED_EDGE('',*,*,#115,.T.);
#91=ORIENTED_EDGE('',*,*,#140,.T.);
#92=ORIENTED_EDGE('',*,*,#141,.F.);
#93=ORIENTED_EDGE('',*,*,#114,.T.);
#94=ORIENTED_EDGE('',*,*,#141,.T.);
#95=ORIENTED_EDGE('',*,*,#142,.F.);
#96=ORIENTED_EDGE('',*,*,#113,.T.);
#97=ORIENTED_EDGE('',*,*,#142,.T.);
#98=ORIENTED_EDGE('',*,*,#143,.F.);
#99=ORIENTED_EDGE('',*,*,#112,.T.);
#100=ORIENTED_EDGE('',*,*,#143,.T.);
#101=ORIENTED_EDGE('',*,*,#144,.F.);
#102=ORIENTED_EDGE('',*,*,#111,.T.);
#103=ORIENTED_EDGE('',*,*,#144,.T.);
#104=ORIENTED_EDGE('',*,*,#145,.T.);
#105=ORIENTED_EDGE('',*,*,#146,.T.);
#106=ORIENTED_EDGE('',*,*,#146,.F.);
#107=ORIENTED_EDGE('',*,*,#145,.F.);
#108=ORIENTED_EDGE('',*,*,#109,.F.);
#109=EDGE_CURVE('',#147,#147,#185,.T.);
#110=EDGE_CURVE('',#148,#148,#186,.T.);
#111=EDGE_CURVE('',#149,#149,#187,.T.);
#112=EDGE_CURVE('',#150,#150,#188,.T.);
#113=EDGE_CURVE('',#151,#151,#189,.T.);
#114=EDGE_CURVE('',#152,#152,#190,.T.);
#115=EDGE_CURVE('',#153,#153,#191,.T.);
#116=EDGE_CURVE('',#154,#154,#192,.T.);
#117=EDGE_CURVE('',#155,#155,#193,.T.);
#118=EDGE_CURVE('',#156,#156,#194,.T.);
#119=EDGE_CURVE('',#157,#157,#195,.T.);
#120=EDGE_CURVE('',#158,#158,#196,.T.);
#121=EDGE_CURVE('',#159,#159,#197,.T.);
#122=EDGE_CURVE('',#160,#160,#198,.T.);
#123=EDGE_CURVE('',#161,#161,#199,.T.);
#124=EDGE_CURVE('',#162,#162,#200,.T.);
#125=EDGE_CURVE('',#163,#163,#201,.T.);
#126=EDGE_CURVE('',#164,#164,#202,.T.);
#127=EDGE_CURVE('',#165,#165,#203,.T.);
#128=EDGE_CURVE('',#166,#166,#204,.T.);
#129=EDGE_CURVE('',#167,#167,#205,.T.);
#130=EDGE_CURVE('',#168,#168,#206,.T.);
#131=EDGE_CURVE('',#169,#169,#207,.T.);
#132=EDGE_CURVE('',#170,#170,#208,.T.);
#133=EDGE_CURVE('',#171,#171,#209,.T.);
#134=EDGE_CURVE('',#172,#172,#210,.T.);
#135=EDGE_CURVE('',#173,#173,#211,.T.);
#136=EDGE_CURVE('',#174,#174,#212,.T.);
#137=EDGE_CURVE('',#175,#175,#213,.T.);
#138=EDGE_CURVE('',#176,#176,#214,.T.);
#139=EDGE_CURVE('',#177,#177,#215,.T.);
#140=EDGE_CURVE('',#178,#178,#216,.T.);
#141=EDGE_CURVE('',#179,#179,#217,.T.);
#142=EDGE_CURVE('',#180,#180,#218,.T.);
#143=EDGE_CURVE('',#181,#181,#219,.T.);
#144=EDGE_CURVE('',#182,#182,#220,.T.);
#145=EDGE_CURVE('',#183,#183,#221,.T.);
#146=EDGE_CURVE('',#184,#184,#222,.T.);
#147=VERTEX_POINT('',#681);
#148=VERTEX_POINT('',#683);
#149=VERTEX_POINT('',#686);
#150=VERTEX_POINT('',#688);
#151=VERTEX_POINT('',#690);
#152=VERTEX_POINT('',#692);
#153=VERTEX_POINT('',#694);
#154=VERTEX_POINT('',#696);
#155=VERTEX_POINT('',#698);
#156=VERTEX_POINT('',#700);
#157=VERTEX_POINT('',#702);
#158=VERTEX_POINT('',#704);
#159=VERTEX_POINT('',#706);
#160=VERTEX_POINT('',#708);
#161=VERTEX_POINT('',#710);
#162=VERTEX_POINT('',#712);
#163=VERTEX_POINT('',#714);
#164=VERTEX_POINT('',#716);
#165=VERTEX_POINT('',#718);
#166=VERTEX_POINT('',#721);
#167=VERTEX_POINT('',#725);
#168=VERTEX_POINT('',#729);
#169=VERTEX_POINT('',#733);
#170=VERTEX_POINT('',#737);
#171=VERTEX_POINT('',#741);
#172=VERTEX_POINT('',#745);
#173=VERTEX_POINT('',#749);
#174=VERTEX_POINT('',#753);
#175=VERTEX_POINT('',#757);
#176=VERTEX_POINT('',#761);
#177=VERTEX_POINT('',#765);
#178=VERTEX_POINT('',#769);
#179=VERTEX_POINT('',#773);
#180=VERTEX_POINT('',#777);
#181=VERTEX_POINT('',#781);
#182=VERTEX_POINT('',#785);
#183=VERTEX_POINT('',#789);
#184=VERTEX_POINT('',#791);
#185=CIRCLE('',#446,0.012);
#186=CIRCLE('',#447,0.012);
#187=CIRCLE('',#449,0.0011);
#188=CIRCLE('',#450,0.0011);
#189=CIRCLE('',#451,0.0011);
#190=CIRCLE('',#452,0.0011);
#191=CIRCLE('',#453,0.0011);
#192=CIRCLE('',#454,0.0011);
#193=CIRCLE('',#455,0.0011);
#194=CIRCLE('',#456,0.0011);
#195=CIRCLE('',#457,0.0011);
#196=CIRCLE('',#458,0.0011);
#197=CIRCLE('',#459,0.0011);
#198=CIRCLE('',#460,0.0011);
#199=CIRCLE('',#461,0.0011);
#200=CIRCLE('',#462,0.0011);
#201=CIRCLE('',#463,0.0011);
#202=CIRCLE('',#464,0.0011);
#203=CIRCLE('',#465,0.0011);
#204=CIRCLE('',#467,0.0011);
#205=CIRCLE('',#470,0.0011);
#206=CIRCLE('',#473,0.0011);
#207=CIRCLE('',#476,0.0011);
#208=CIRCLE('',#479,0.0011);
#209=CIRCLE('',#482,0.0011);
#210=CIRCLE('',#485,0.0011);
#211=CIRCLE('',#488,0.0011);
#212=CIRCLE('',#491,0.0011);
#213=CIRCLE('',#494,0.0011);
#214=CIRCLE('',#497,0.0011);
#215=CIRCLE('',#500,0.0011);
#216=CIRCLE('',#503,0.0011);
#217=CIRCLE('',#506,0.0011);
#218=CIRCLE('',#509,0.0011);
#219=CIRCLE('',#512,0.0011);
#220=CIRCLE('',#515,0.0011);
#221=CIRCLE('',#518,0.00743545155828983);
#222=CIRCLE('',#519,0.00535553324301753);
#223=EDGE_LOOP('',(#33));
#224=EDGE_LOOP('',(#34));
#225=EDGE_LOOP('',(#35));
#226=EDGE_LOOP('',(#36));
#227=EDGE_LOOP('',(#37));
#228=EDGE_LOOP('',(#38));
#229=EDGE_LOOP('',(#39));
#230=EDGE_LOOP('',(#40));
#231=EDGE_LOOP('',(#41));
#232=EDGE_LOOP('',(#42));
#233=EDGE_LOOP('',(#43));
#234=EDGE_LOOP('',(#44));
#235=EDGE_LOOP('',(#45));
#236=EDGE_LOOP('',(#46));
#237=EDGE_LOOP('',(#47));
#238=EDGE_LOOP('',(#48));
#239=EDGE_LOOP('',(#49));
#240=EDGE_LOOP('',(#50));
#241=EDGE_LOOP('',(#51));
#242=EDGE_LOOP('',(#52));
#243=EDGE_LOOP('',(#53));
#244=EDGE_LOOP('',(#54));
#245=EDGE_LOOP('',(#55));
#246=EDGE_LOOP('',(#56));
#247=EDGE_LOOP('',(#57));
#248=EDGE_LOOP('',(#58));
#249=EDGE_LOOP('',(#59));
#250=EDGE_LOOP('',(#60));
#251=EDGE_LOOP('',(#61));
#252=EDGE_LOOP('',(#62));
#253=EDGE_LOOP('',(#63));
#254=EDGE_LOOP('',(#64));
#255=EDGE_LOOP('',(#65));
#256=EDGE_LOOP('',(#66));
#257=EDGE_LOOP('',(#67));
#258=EDGE_LOOP('',(#68));
#259=EDGE_LOOP('',(#69));
#260=EDGE_LOOP('',(#70));
#261=EDGE_LOOP('',(#71));
#262=EDGE_LOOP('',(#72));
#263=EDGE_LOOP('',(#73));
#264=EDGE_LOOP('',(#74));
#265=EDGE_LOOP('',(#75));
#266=EDGE_LOOP('',(#76));
#267=EDGE_LOOP('',(#77));
#268=EDGE_LOOP('',(#78));
#269=EDGE_LOOP('',(#79));
#270=EDGE_LOOP('',(#80));
#271=EDGE_LOOP('',(#81));
#272=EDGE_LOOP('',(#82));
#273=EDGE_LOOP('',(#83));
#274=EDGE_LOOP('',(#84));
#275=EDGE_LOOP('',(#85));
#276=EDGE_LOOP('',(#86));
#277=EDGE_LOOP('',(#87));
#278=EDGE_LOOP('',(#88));
#279=EDGE_LOOP('',(#89));
#280=EDGE_LOOP('',(#90));
#281=EDGE_LOOP('',(#91));
#282=EDGE_LOOP('',(#92));
#283=EDGE_LOOP('',(#93));
#284=EDGE_LOOP('',(#94));
#285=EDGE_LOOP('',(#95));
#286=EDGE_LOOP('',(#96));
#287=EDGE_LOOP('',(#97));
#288=EDGE_LOOP('',(#98));
#289=EDGE_LOOP('',(#99));
#290=EDGE_LOOP('',(#100));
#291=EDGE_LOOP('',(#101));
#292=EDGE_LOOP('',(#102));
#293=EDGE_LOOP('',(#103));
#294=EDGE_LOOP('',(#104));
#295=EDGE_LOOP('',(#105));
#296=EDGE_LOOP('',(#106));
#297=EDGE_LOOP('',(#107));
#298=EDGE_LOOP('',(#108));
#299=FACE_BOUND('',#223,.T.);
#300=FACE_BOUND('',#224,.T.);
#301=FACE_BOUND('',#225,.T.);
#302=FACE_BOUND('',#226,.T.);
#303=FACE_BOUND('',#227,.T.);
#304=FACE_BOUND('',#228,.T.);
#305=FACE_BOUND('',#229,.T.);
#306=FACE_BOUND('',#230,.T.);
#307=FACE_BOUND('',#231,.T.);
#308=FACE_BOUND('',#232,.T.);
#309=FACE_BOUND('',#233,.T.);
#310=FACE_BOUND('',#234,.T.);
#311=FACE_BOUND('',#235,.T.);
#312=FACE_BOUND('',#236,.T.);
#313=FACE_BOUND('',#237,.T.);
#314=FACE_BOUND('',#238,.T.);
#315=FACE_BOUND('',#239,.T.);
#316=FACE_BOUND('',#240,.T.);
#317=FACE_BOUND('',#241,.T.);
#318=FACE_BOUND('',#242,.T.);
#319=FACE_BOUND('',#243,.T.);
#320=FACE_BOUND('',#244,.T.);
#321=FACE_BOUND('',#245,.T.);
#322=FACE_BOUND('',#246,.T.);
#323=FACE_BOUND('',#247,.T.);
#324=FACE_BOUND('',#248,.T.);
#325=FACE_BOUND('',#249,.T.);
#326=FACE_BOUND('',#250,.T.);
#327=FACE_BOUND('',#251,.T.);
#328=FACE_BOUND('',#252,.T.);
#329=FACE_BOUND('',#253,.T.);
#330=FACE_BOUND('',#254,.T.);
#331=FACE_BOUND('',#255,.T.);
#332=FACE_BOUND('',#256,.T.);
#333=FACE_BOUND('',#257,.T.);
#334=FACE_BOUND('',#258,.T.);
#335=FACE_BOUND('',#259,.T.);
#336=FACE_BOUND('',#260,.T.);
#337=FACE_BOUND('',#261,.T.);
#338=FACE_BOUND('',#262,.T.);
#339=FACE_BOUND('',#263,.T.);
#340=FACE_BOUND('',#264,.T.);
#341=FACE_BOUND('',#265,.T.);
#342=FACE_BOUND('',#266,.T.);
#343=FACE_BOUND('',#267,.T.);
#344=FACE_BOUND('',#268,.T.);
#345=FACE_BOUND('',#269,.T.);
#346=FACE_BOUND('',#270,.T.);
#347=FACE_BOUND('',#271,.T.);
#348=FACE_BOUND('',#272,.T.);
#349=FACE_BOUND('',#273,.T.);
#350=FACE_BOUND('',#274,.T.);
#351=FACE_BOUND('',#275,.T.);
#352=FACE_BOUND('',#276,.T.);
#353=FACE_BOUND('',#277,.T.);
#354=FACE_BOUND('',#278,.T.);
#355=FACE_BOUND('',#279,.T.);
#356=FACE_BOUND('',#280,.T.);
#357=FACE_BOUND('',#281,.T.);
#358=FACE_BOUND('',#282,.T.);
#359=FACE_BOUND('',#283,.T.);
#360=FACE_BOUND('',#284,.T.);
#361=FACE_BOUND('',#285,.T.);
#362=FACE_BOUND('',#286,.T.);
#363=FACE_BOUND('',#287,.T.);
#364=FACE_BOUND('',#288,.T.);
#365=FACE_BOUND('',#289,.T.);
#366=FACE_BOUND('',#290,.T.);
#367=FACE_BOUND('',#291,.T.);
#368=FACE_BOUND('',#292,.T.);
#369=FACE_BOUND('',#293,.T.);
#370=FACE_BOUND('',#294,.T.);
#371=FACE_BOUND('',#295,.T.);
#372=FACE_BOUND('',#296,.T.);
#373=FACE_BOUND('',#297,.T.);
#374=FACE_BOUND('',#298,.T.);
#375=CYLINDRICAL_SURFACE('',#445,0.012);
#376=CYLINDRICAL_SURFACE('',#466,0.0011);
#377=CYLINDRICAL_SURFACE('',#469,0.0011);
#378=CYLINDRICAL_SURFACE('',#472,0.0011);
#379=CYLINDRICAL_SURFACE('',#475,0.0011);
#380=CYLINDRICAL_SURFACE('',#478,0.0011);
#381=CYLINDRICAL_SURFACE('',#481,0.0011);
#382=CYLINDRICAL_SURFACE('',#484,0.0011);
#383=CYLINDRICAL_SURFACE('',#487,0.0011);
#384=CYLINDRICAL_SURFACE('',#490,0.0011);
#385=CYLINDRICAL_SURFACE('',#493,0.0011);
#386=CYLINDRICAL_SURFACE('',#496,0.0011);
#387=CYLINDRICAL_SURFACE('',#499,0.0011);
#388=CYLINDRICAL_SURFACE('',#502,0.0011);
#389=CYLINDRICAL_SURFACE('',#505,0.0011);
#390=CYLINDRICAL_SURFACE('',#508,0.0011);
#391=CYLINDRICAL_SURFACE('',#511,0.0011);
#392=CYLINDRICAL_SURFACE('',#514,0.0011);
#393=ADVANCED_FACE('',(#299,#300),#375,.T.);
#394=ADVANCED_FACE('',(#301,#302,#303,#304,#305,#306,#307,#308,#309,#310,#311,#312,#313,#314,#315,#316,#317,#318),#14,.T.);
#395=ADVANCED_FACE('',(#319,#320),#376,.F.);
#396=ADVANCED_FACE('',(#321),#15,.T.);
#397=ADVANCED_FACE('',(#322,#323),#377,.F.);
#398=ADVANCED_FACE('',(#324),#16,.T.);
#399=ADVANCED_FACE('',(#325,#326),#378,.F.);
#400=ADVANCED_FACE('',(#327),#17,.T.);
#401=ADVANCED_FACE('',(#328,#329),#379,.F.);
#402=ADVANCED_FACE('',(#330),#18,.T.);
#403=ADVANCED_FACE('',(#331,#332),#380,.F.);
#404=ADVANCED_FACE('',(#333),#19,.T.);
#405=ADVANCED_FACE('',(#334,#335),#381,.F.);
#406=ADVANCED_FACE('',(#336),#20,.T.);
#407=ADVANCED_FACE('',(#337,#338),#382,.F.);
#408=ADVANCED_FACE('',(#339),#21,.T.);
#409=ADVANCED_FACE('',(#340,#341),#383,.F.);
#410=ADVANCED_FACE('',(#342),#22,.T.);
#411=ADVANCED_FACE('',(#343,#344),#384,.F.);
#412=ADVANCED_FACE('',(#345),#23,.T.);
#413=ADVANCED_FACE('',(#346,#347),#385,.F.);
#414=ADVANCED_FACE('',(#348),#24,.T.);
#415=ADVANCED_FACE('',(#349,#350),#386,.F.);
#416=ADVANCED_FACE('',(#351),#25,.T.);
#417=ADVANCED_FACE('',(#352,#353),#387,.F.);
#418=ADVANCED_FACE('',(#354),#26,.T.);
#419=ADVANCED_FACE('',(#355,#356),#388,.F.);
#420=ADVANCED_FACE('',(#357),#27,.T.);
#421=ADVANCED_FACE('',(#358,#359),#389,.F.);
#422=ADVANCED_FACE('',(#360),#28,.T.);
#423=ADVANCED_FACE('',(#361,#362),#390,.F.);
#424=ADVANCED_FACE('',(#363),#29,.T.);
#425=ADVANCED_FACE('',(#364,#365),#391,.F.);
#426=ADVANCED_FACE('',(#366),#30,.T.);
#427=ADVANCED_FACE('',(#367,#368),#392,.F.);
#428=ADVANCED_FACE('',(#369),#31,.T.);
#429=ADVANCED_FACE('',(#370,#371),#12,.T.);
#430=ADVANCED_FACE('',(#372),#32,.F.);
#431=ADVANCED_FACE('',(#373,#374),#13,.T.);
#432=CLOSED_SHELL('',(#393,#394,#395,#396,#397,#398,#399,#400,#401,#402,#403,#404,#405,#406,#407,#408,#409,#410,#411,#412,#413,#414,#415,#416,#417,#418,#419,#420,#421,#422,#423,#424,#425,#426,#427,#428,#429,#430,#431));
#433=STYLED_ITEM('',(#434),#441);
#434=PRESENTATION_STYLE_ASSIGNMENT((#435));
#435=SURFACE_STYLE_USAGE(.BOTH.,#436);
#436=SURFACE_SIDE_STYLE('',(#437));
#437=SURFACE_STYLE_FILL_AREA(#438);
#438=FILL_AREA_STYLE('',(#439));
#439=FILL_AREA_STYLE_COLOUR('',#440);
#440=COLOUR_RGB('',0.615686274509804,0.811764705882353,0.929411764705882);
#441=MANIFOLD_SOLID_BREP('Part 1',#432);
#442=SHAPE_DEFINITION_REPRESENTATION(#800,#443);
#443=SHAPE_REPRESENTATION('Part 1',(#444),#795);
#444=AXIS2_PLACEMENT_3D('',#678,#522,#523);
#445=AXIS2_PLACEMENT_3D('',#679,#524,#525);
#446=AXIS2_PLACEMENT_3D('',#680,#526,#527);
#447=AXIS2_PLACEMENT_3D('',#682,#528,#529);
#448=AXIS2_PLACEMENT_3D('',#684,#530,#531);
#449=AXIS2_PLACEMENT_3D('',#685,#532,#533);
#450=AXIS2_PLACEMENT_3D('',#687,#534,#535);
#451=AXIS2_PLACEMENT_3D('',#689,#536,#537);
#452=AXIS2_PLACEMENT_3D('',#691,#538,#539);
#453=AXIS2_PLACEMENT_3D('',#693,#540,#541);
#454=AXIS2_PLACEMENT_3D('',#695,#542,#543);
#455=AXIS2_PLACEMENT_3D('',#697,#544,#545);
#456=AXIS2_PLACEMENT_3D('',#699,#546,#547);
#457=AXIS2_PLACEMENT_3D('',#701,#548,#549);
#458=AXIS2_PLACEMENT_3D('',#703,#550,#551);
#459=AXIS2_PLACEMENT_3D('',#705,#552,#553);
#460=AXIS2_PLACEMENT_3D('',#707,#554,#555);
#461=AXIS2_PLACEMENT_3D('',#709,#556,#557);
#462=AXIS2_PLACEMENT_3D('',#711,#558,#559);
#463=AXIS2_PLACEMENT_3D('',#713,#560,#561);
#464=AXIS2_PLACEMENT_3D('',#715,#562,#563);
#465=AXIS2_PLACEMENT_3D('',#717,#564,#565);
#466=AXIS2_PLACEMENT_3D('',#719,#566,#567);
#467=AXIS2_PLACEMENT_3D('',#720,#568,#569);
#468=AXIS2_PLACEMENT_3D('',#722,#570,#571);
#469=AXIS2_PLACEMENT_3D('',#723,#572,#573);
#470=AXIS2_PLACEMENT_3D('',#724,#574,#575);
#471=AXIS2_PLACEMENT_3D('',#726,#576,#577);
#472=AXIS2_PLACEMENT_3D('',#727,#578,#579);
#473=AXIS2_PLACEMENT_3D('',#728,#580,#581);
#474=AXIS2_PLACEMENT_3D('',#730,#582,#583);
#475=AXIS2_PLACEMENT_3D('',#731,#584,#585);
#476=AXIS2_PLACEMENT_3D('',#732,#586,#587);
#477=AXIS2_PLACEMENT_3D('',#734,#588,#589);
#478=AXIS2_PLACEMENT_3D('',#735,#590,#591);
#479=AXIS2_PLACEMENT_3D('',#736,#592,#593);
#480=AXIS2_PLACEMENT_3D('',#738,#594,#595);
#481=AXIS2_PLACEMENT_3D('',#739,#596,#597);
#482=AXIS2_PLACEMENT_3D('',#740,#598,#599);
#483=AXIS2_PLACEMENT_3D('',#742,#600,#601);
#484=AXIS2_PLACEMENT_3D('',#743,#602,#603);
#485=AXIS2_PLACEMENT_3D('',#744,#604,#605);
#486=AXIS2_PLACEMENT_3D('',#746,#606,#607);
#487=AXIS2_PLACEMENT_3D('',#747,#608,#609);
#488=AXIS2_PLACEMENT_3D('',#748,#610,#611);
#489=AXIS2_PLACEMENT_3D('',#750,#612,#613);
#490=AXIS2_PLACEMENT_3D('',#751,#614,#615);
#491=AXIS2_PLACEMENT_3D('',#752,#616,#617);
#492=AXIS2_PLACEMENT_3D('',#754,#618,#619);
#493=AXIS2_PLACEMENT_3D('',#755,#620,#621);
#494=AXIS2_PLACEMENT_3D('',#756,#622,#623);
#495=AXIS2_PLACEMENT_3D('',#758,#624,#625);
#496=AXIS2_PLACEMENT_3D('',#759,#626,#627);
#497=AXIS2_PLACEMENT_3D('',#760,#628,#629);
#498=AXIS2_PLACEMENT_3D('',#762,#630,#631);
#499=AXIS2_PLACEMENT_3D('',#763,#632,#633);
#500=AXIS2_PLACEMENT_3D('',#764,#634,#635);
#501=AXIS2_PLACEMENT_3D('',#766,#636,#637);
#502=AXIS2_PLACEMENT_3D('',#767,#638,#639);
#503=AXIS2_PLACEMENT_3D('',#768,#640,#641);
#504=AXIS2_PLACEMENT_3D('',#770,#642,#643);
#505=AXIS2_PLACEMENT_3D('',#771,#644,#645);
#506=AXIS2_PLACEMENT_3D('',#772,#646,#647);
#507=AXIS2_PLACEMENT_3D('',#774,#648,#649);
#508=AXIS2_PLACEMENT_3D('',#775,#650,#651);
#509=AXIS2_PLACEMENT_3D('',#776,#652,#653);
#510=AXIS2_PLACEMENT_3D('',#778,#654,#655);
#511=AXIS2_PLACEMENT_3D('',#779,#656,#657);
#512=AXIS2_PLACEMENT_3D('',#780,#658,#659);
#513=AXIS2_PLACEMENT_3D('',#782,#660,#661);
#514=AXIS2_PLACEMENT_3D('',#783,#662,#663);
#515=AXIS2_PLACEMENT_3D('',#784,#664,#665);
#516=AXIS2_PLACEMENT_3D('',#786,#666,#667);
#517=AXIS2_PLACEMENT_3D('',#787,#668,#669);
#518=AXIS2_PLACEMENT_3D('',#788,#670,#671);
#519=AXIS2_PLACEMENT_3D('',#790,#672,#673);
#520=AXIS2_PLACEMENT_3D('',#792,#674,#675);
#521=AXIS2_PLACEMENT_3D('',#793,#676,#677);
#522=DIRECTION('',(0.,0.,1.));
#523=DIRECTION('',(1.,0.,0.));
#524=DIRECTION('',(0.,0.,-1.));
#525=DIRECTION('',(-1.,0.,0.));
#526=DIRECTION('',(0.,0.,1.));
#527=DIRECTION('',(1.,0.,0.));
#528=DIRECTION('',(0.,0.,1.));
#529=DIRECTION('',(1.,0.,0.));
#530=DIRECTION('',(0.,0.,1.));
#531=DIRECTION('',(1.,0.,0.));
#532=DIRECTION('',(0.,0.,1.));
#533=DIRECTION('',(1.,0.,0.));
#534=DIRECTION('',(0.,0.,1.));
#535=DIRECTION('',(1.,0.,0.));
#536=DIRECTION('',(0.,0.,1.));
#537=DIRECTION('',(1.,0.,0.));
#538=DIRECTION('',(0.,0.,1.));
#539=DIRECTION('',(1.,0.,0.));
#540=DIRECTION('',(0.,0.,1.));
#541=DIRECTION('',(1.,0.,0.));
#542=DIRECTION('',(0.,0.,1.));
#543=DIRECTION('',(1.,0.,0.));
#544=DIRECTION('',(0.,0.,1.));
#545=DIRECTION('',(1.,0.,0.));
#546=DIRECTION('',(0.,0.,1.));
#547=DIRECTION('',(1.,0.,0.));
#548=DIRECTION('',(0.,0.,1.));
#549=DIRECTION('',(1.,0.,0.));
#550=DIRECTION('',(0.,0.,1.));
#551=DIRECTION('',(1.,0.,0.));
#552=DIRECTION('',(0.,0.,1.));
#553=DIRECTION('',(1.,0.,0.));
#554=DIRECTION('',(0.,0.,1.));
#555=DIRECTION('',(1.,0.,0.));
#556=DIRECTION('',(0.,0.,1.));
#557=DIRECTION('',(1.,0.,0.));
#558=DIRECTION('',(0.,0.,1.));
#559=DIRECTION('',(1.,0.,0.));
#560=DIRECTION('',(0.,0.,1.));
#561=DIRECTION('',(1.,0.,0.));
#562=DIRECTION('',(0.,0.,1.));
#563=DIRECTION('',(1.,0.,0.));
#564=DIRECTION('',(0.,0.,1.));
#565=DIRECTION('',(1.,0.,0.));
#566=DIRECTION('',(0.,0.,1.));
#567=DIRECTION('',(1.,0.,0.));
#568=DIRECTION('',(0.,0.,1.));
#569=DIRECTION('',(1.,0.,0.));
#570=DIRECTION('',(0.,0.,1.));
#571=DIRECTION('',(1.,0.,0.));
#572=DIRECTION('',(0.,0.,1.));
#573=DIRECTION('',(1.,0.,0.));
#574=DIRECTION('',(0.,0.,1.));
#575=DIRECTION('',(1.,0.,0.));
#576=DIRECTION('',(0.,0.,1.));
#577=DIRECTION('',(1.,0.,0.));
#578=DIRECTION('',(0.,0.,1.));
#579=DIRECTION('',(1.,0.,0.));
#580=DIRECTION('',(0.,0.,1.));
#581=DIRECTION('',(1.,0.,0.));
#582=DIRECTION('',(0.,0.,1.));
#583=DIRECTION('',(1.,0.,0.));
#584=DIRECTION('',(0.,0.,1.));
#585=DIRECTION('',(1.,0.,0.));
#586=DIRECTION('',(0.,0.,1.));
#587=DIRECTION('',(1.,0.,0.));
#588=DIRECTION('',(0.,0.,1.));
#589=DIRECTION('',(1.,0.,0.));
#590=DIRECTION('',(0.,0.,1.));
#591=DIRECTION('',(1.,0.,0.));
#592=DIRECTION('',(0.,0.,1.));
#593=DIRECTION('',(1.,0.,0.));
#594=DIRECTION('',(0.,0.,1.));
#595=DIRECTION('',(1.,0.,0.));
#596=DIRECTION('',(0.,0.,1.));
#597=DIRECTION('',(1.,0.,0.));
#598=DIRECTION('',(0.,0.,1.));
#599=DIRECTION('',(1.,0.,0.));
#600=DIRECTION('',(0.,0.,1.));
#601=DIRECTION('',(1.,0.,0.));
#602=DIRECTION('',(0.,0.,1.));
#603=DIRECTION('',(1.,0.,0.));
#604=DIRECTION('',(0.,0.,1.));
#605=DIRECTION('',(1.,0.,0.));
#606=DIRECTION('',(0.,0.,1.));
#607=DIRECTION('',(1.,0.,0.));
#608=DIRECTION('',(0.,0.,1.));
#609=DIRECTION('',(1.,0.,0.));
#610=DIRECTION('',(0.,0.,1.));
#611=DIRECTION('',(1.,0.,0.));
#612=DIRECTION('',(0.,0.,1.));
#613=DIRECTION('',(1.,0.,0.));
#614=DIRECTION('',(0.,0.,1.));
#615=DIRECTION('',(1.,0.,0.));
#616=DIRECTION('',(0.,0.,1.));
#617=DIRECTION('',(1.,0.,0.));
#618=DIRECTION('',(0.,0.,1.));
#619=DIRECTION('',(1.,0.,0.));
#620=DIRECTION('',(0.,0.,1.));
#621=DIRECTION('',(1.,0.,0.));
#622=DIRECTION('',(0.,0.,1.));
#623=DIRECTION('',(1.,0.,0.));
#624=DIRECTION('',(0.,0.,1.));
#625=DIRECTION('',(1.,0.,0.));
#626=DIRECTION('',(0.,0.,1.));
#627=DIRECTION('',(1.,0.,0.));
#628=DIRECTION('',(0.,0.,1.));
#629=DIRECTION('',(1.,0.,0.));
#630=DIRECTION('',(0.,0.,1.));
#631=DIRECTION('',(1.,0.,0.));
#632=DIRECTION('',(0.,0.,1.));
#633=DIRECTION('',(1.,0.,0.));
#634=DIRECTION('',(0.,0.,1.));
#635=DIRECTION('',(1.,0.,0.));
#636=DIRECTION('',(0.,0.,1.));
#637=DIRECTION('',(1.,0.,0.));
#638=DIRECTION('',(0.,0.,1.));
#639=DIRECTION('',(1.,0.,0.));
#640=DIRECTION('',(0.,0.,1.));
#641=DIRECTION('',(1.,0.,0.));
#642=DIRECTION('',(0.,0.,1.));
#643=DIRECTION('',(1.,0.,0.));
#644=DIRECTION('',(0.,0.,1.));
#645=DIRECTION('',(1.,0.,0.));
#646=DIRECTION('',(0.,0.,1.));
#647=DIRECTION('',(1.,0.,0.));
#648=DIRECTION('',(0.,0.,1.));
#649=DIRECTION('',(1.,0.,0.));
#650=DIRECTION('',(0.,0.,1.));
#651=DIRECTION('',(1.,0.,0.));
#652=DIRECTION('',(0.,0.,1.));
#653=DIRECTION('',(1.,0.,0.));
#654=DIRECTION('',(0.,0.,1.));
#655=DIRECTION('',(1.,0.,0.));
#656=DIRECTION('',(0.,0.,1.));
#657=DIRECTION('',(1.,0.,0.));
#658=DIRECTION('',(0.,0.,1.));
#659=DIRECTION('',(1.,0.,0.));
#660=DIRECTION('',(0.,0.,1.));
#661=DIRECTION('',(1.,0.,0.));
#662=DIRECTION('',(0.,0.,1.));
#663=DIRECTION('',(1.,0.,0.));
#664=DIRECTION('',(0.,0.,1.));
#665=DIRECTION('',(1.,0.,0.));
#666=DIRECTION('',(0.,0.,1.));
#667=DIRECTION('',(1.,0.,0.));
#668=DIRECTION('',(0.,0.,1.));
#669=DIRECTION('',(1.,0.,0.));
#670=DIRECTION('',(0.,0.,-1.));
#671=DIRECTION('',(-1.,0.,0.));
#672=DIRECTION('',(0.,0.,1.));
#673=DIRECTION('',(1.,0.,0.));
#674=DIRECTION('',(0.,0.,1.));
#675=DIRECTION('',(1.,0.,0.));
#676=DIRECTION('',(0.,0.,1.));
#677=DIRECTION('',(1.,0.,0.));
#678=CARTESIAN_POINT('',(0.,0.,0.));
#679=CARTESIAN_POINT('',(0.,7.34788079488412E-19,0.034));
#680=CARTESIAN_POINT('',(0.,5.20474889637625E-19,0.0119946095332321));
#681=CARTESIAN_POINT('',(0.012,5.20474889637625E-19,0.0119946095332321));
#682=CARTESIAN_POINT('',(0.,7.34788079488412E-19,0.034));
#683=CARTESIAN_POINT('',(0.012,7.34788079488412E-19,0.034));
#684=CARTESIAN_POINT('',(0.,0.,0.034));
#685=CARTESIAN_POINT('',(-0.00925,-8.00006164035299E-19,0.034));
#686=CARTESIAN_POINT('',(-0.00815,-8.00006164035299E-19,0.034));
#687=CARTESIAN_POINT('',(0.006,-0.006,0.034));
#688=CARTESIAN_POINT('',(0.0071,-0.006,0.034));
#689=CARTESIAN_POINT('',(0.003,0.003,0.034));
#690=CARTESIAN_POINT('',(0.0041,0.003,0.034));
#691=CARTESIAN_POINT('',(-1.7347234759768E-18,0.00925,0.034));
#692=CARTESIAN_POINT('',(0.0011,0.00925,0.034));
#693=CARTESIAN_POINT('',(0.006,0.006,0.034));
#694=CARTESIAN_POINT('',(0.0071,0.006,0.034));
#695=CARTESIAN_POINT('',(1.3010426069826E-18,-0.006,0.034));
#696=CARTESIAN_POINT('',(0.0011,-0.006,0.034));
#697=CARTESIAN_POINT('',(-0.006,-0.006,0.034));
#698=CARTESIAN_POINT('',(-0.0049,-0.006,0.034));
#699=CARTESIAN_POINT('',(0.,6.73555739531044E-20,0.034));
#700=CARTESIAN_POINT('',(0.0011,6.73555739531044E-20,0.034));
#701=CARTESIAN_POINT('',(0.00925,-8.00006164035299E-19,0.034));
#702=CARTESIAN_POINT('',(0.01035,-8.00006164035299E-19,0.034));
#703=CARTESIAN_POINT('',(-8.67361737988404E-19,0.006,0.034));
#704=CARTESIAN_POINT('',(0.0011,0.006,0.034));
#705=CARTESIAN_POINT('',(-0.003,-0.003,0.034));
#706=CARTESIAN_POINT('',(-0.0019,-0.003,0.034));
#707=CARTESIAN_POINT('',(-0.003,0.003,0.034));
#708=CARTESIAN_POINT('',(-0.0019,0.003,0.034));
#709=CARTESIAN_POINT('',(0.006,6.73555739531044E-20,0.034));
#710=CARTESIAN_POINT('',(0.0071,6.73555739531044E-20,0.034));
#711=CARTESIAN_POINT('',(-0.006,0.006,0.034));
#712=CARTESIAN_POINT('',(-0.0049,0.006,0.034));
#713=CARTESIAN_POINT('',(-0.006,6.73555739531044E-20,0.034));
#714=CARTESIAN_POINT('',(-0.0049,6.73555739531044E-20,0.034));
#715=CARTESIAN_POINT('',(0.003,-0.003,0.034));
#716=CARTESIAN_POINT('',(0.0041,-0.003,0.034));
#717=CARTESIAN_POINT('',(1.7347234759768E-18,-0.00925,0.034));
#718=CARTESIAN_POINT('',(0.0011,-0.00925,0.034));
#719=CARTESIAN_POINT('',(1.7347234759768E-18,-0.00925,0.018));
#720=CARTESIAN_POINT('',(1.7347234759768E-18,-0.00925,0.018));
#721=CARTESIAN_POINT('',(0.0011,-0.00925,0.018));
#722=CARTESIAN_POINT('',(0.,0.,0.018));
#723=CARTESIAN_POINT('',(0.003,-0.003,0.018));
#724=CARTESIAN_POINT('',(0.003,-0.003,0.018));
#725=CARTESIAN_POINT('',(0.0041,-0.003,0.018));
#726=CARTESIAN_POINT('',(0.,0.,0.018));
#727=CARTESIAN_POINT('',(-0.006,6.73555739531044E-20,0.018));
#728=CARTESIAN_POINT('',(-0.006,6.73555739531044E-20,0.018));
#729=CARTESIAN_POINT('',(-0.0049,6.73555739531044E-20,0.018));
#730=CARTESIAN_POINT('',(0.,0.,0.018));
#731=CARTESIAN_POINT('',(-0.006,0.006,0.018));
#732=CARTESIAN_POINT('',(-0.006,0.006,0.018));
#733=CARTESIAN_POINT('',(-0.0049,0.006,0.018));
#734=CARTESIAN_POINT('',(0.,0.,0.018));
#735=CARTESIAN_POINT('',(0.006,6.73555739531044E-20,0.018));
#736=CARTESIAN_POINT('',(0.006,6.73555739531044E-20,0.018));
#737=CARTESIAN_POINT('',(0.0071,6.73555739531044E-20,0.018));
#738=CARTESIAN_POINT('',(0.,0.,0.018));
#739=CARTESIAN_POINT('',(-0.003,0.003,0.018));
#740=CARTESIAN_POINT('',(-0.003,0.003,0.018));
#741=CARTESIAN_POINT('',(-0.0019,0.003,0.018));
#742=CARTESIAN_POINT('',(0.,0.,0.018));
#743=CARTESIAN_POINT('',(-0.003,-0.003,0.018));
#744=CARTESIAN_POINT('',(-0.003,-0.003,0.018));
#745=CARTESIAN_POINT('',(-0.0019,-0.003,0.018));
#746=CARTESIAN_POINT('',(0.,0.,0.018));
#747=CARTESIAN_POINT('',(-8.67361737988404E-19,0.006,0.018));
#748=CARTESIAN_POINT('',(-8.67361737988404E-19,0.006,0.018));
#749=CARTESIAN_POINT('',(0.0011,0.006,0.018));
#750=CARTESIAN_POINT('',(0.,0.,0.018));
#751=CARTESIAN_POINT('',(0.00925,-8.00006164035299E-19,0.018));
#752=CARTESIAN_POINT('',(0.00925,-8.00006164035299E-19,0.018));
#753=CARTESIAN_POINT('',(0.01035,-8.00006164035299E-19,0.018));
#754=CARTESIAN_POINT('',(0.,0.,0.018));
#755=CARTESIAN_POINT('',(0.,6.73555739531044E-20,0.018));
#756=CARTESIAN_POINT('',(0.,6.73555739531044E-20,0.018));
#757=CARTESIAN_POINT('',(0.0011,6.73555739531044E-20,0.018));
#758=CARTESIAN_POINT('',(0.,0.,0.018));
#759=CARTESIAN_POINT('',(-0.006,-0.006,0.018));
#760=CARTESIAN_POINT('',(-0.006,-0.006,0.018));
#761=CARTESIAN_POINT('',(-0.0049,-0.006,0.018));
#762=CARTESIAN_POINT('',(0.,0.,0.018));
#763=CARTESIAN_POINT('',(1.3010426069826E-18,-0.006,0.018));
#764=CARTESIAN_POINT('',(1.3010426069826E-18,-0.006,0.018));
#765=CARTESIAN_POINT('',(0.0011,-0.006,0.018));
#766=CARTESIAN_POINT('',(0.,0.,0.018));
#767=CARTESIAN_POINT('',(0.006,0.006,0.018));
#768=CARTESIAN_POINT('',(0.006,0.006,0.018));
#769=CARTESIAN_POINT('',(0.0071,0.006,0.018));
#770=CARTESIAN_POINT('',(0.,0.,0.018));
#771=CARTESIAN_POINT('',(-1.7347234759768E-18,0.00925,0.018));
#772=CARTESIAN_POINT('',(-1.7347234759768E-18,0.00925,0.018));
#773=CARTESIAN_POINT('',(0.0011,0.00925,0.018));
#774=CARTESIAN_POINT('',(0.,0.,0.018));
#775=CARTESIAN_POINT('',(0.003,0.003,0.018));
#776=CARTESIAN_POINT('',(0.003,0.003,0.018));
#777=CARTESIAN_POINT('',(0.0041,0.003,0.018));
#778=CARTESIAN_POINT('',(0.,0.,0.018));
#779=CARTESIAN_POINT('',(0.006,-0.006,0.018));
#780=CARTESIAN_POINT('',(0.006,-0.006,0.018));
#781=CARTESIAN_POINT('',(0.0071,-0.006,0.018));
#782=CARTESIAN_POINT('',(0.,0.,0.018));
#783=CARTESIAN_POINT('',(-0.00925,-8.00006164035299E-19,0.018));
#784=CARTESIAN_POINT('',(-0.00925,-8.00006164035299E-19,0.018));
#785=CARTESIAN_POINT('',(-0.00815,-8.00006164035299E-19,0.018));
#786=CARTESIAN_POINT('',(0.,0.,0.018));
#787=CARTESIAN_POINT('',(0.,5.20474889637625E-19,0.014));
#788=CARTESIAN_POINT('',(0.,5.20474889637625E-19,-0.00631279432697982));
#789=CARTESIAN_POINT('',(-0.00743545155828983,5.20474889637625E-19,-0.00631279432697982));
#790=CARTESIAN_POINT('',(0.,5.20474889637625E-19,-0.046));
#791=CARTESIAN_POINT('',(0.00535553324301753,5.20474889637625E-19,-0.046));
#792=CARTESIAN_POINT('',(0.,0.,-0.046));
#793=CARTESIAN_POINT('',(0.,5.20474889637625E-19,0.014));
#794=MECHANICAL_DESIGN_GEOMETRIC_PRESENTATION_REPRESENTATION('',(#433),#795);
#795=(
GEOMETRIC_REPRESENTATION_CONTEXT(3)
GLOBAL_UNCERTAINTY_ASSIGNED_CONTEXT((#796))
GLOBAL_UNIT_ASSIGNED_CONTEXT((#799,#798,#797))
REPRESENTATION_CONTEXT('Part 1','TOP_LEVEL_ASSEMBLY_PART')
);
#796=UNCERTAINTY_MEASURE_WITH_UNIT(LENGTH_MEASURE(1.E-08),#799,'DISTANCE_ACCURACY_VALUE','Maximum Tolerance applied to model');
#797=(
NAMED_UNIT(*)
SI_UNIT($,.STERADIAN.)
SOLID_ANGLE_UNIT()
);
#798=(
NAMED_UNIT(*)
PLANE_ANGLE_UNIT()
SI_UNIT($,.RADIAN.)
);
#799=(
LENGTH_UNIT()
NAMED_UNIT(*)
SI_UNIT($,.METRE.)
);
#800=PRODUCT_DEFINITION_SHAPE('','',#801);
#801=PRODUCT_DEFINITION('','',#803,#802);
#802=PRODUCT_DEFINITION_CONTEXT('',#809,'design');
#803=PRODUCT_DEFINITION_FORMATION_WITH_SPECIFIED_SOURCE('','',#805,.NOT_KNOWN.);
#804=PRODUCT_RELATED_PRODUCT_CATEGORY('','',(#805));
#805=PRODUCT('Part 1','Part 1','Part 1',(#807));
#806=PRODUCT_CATEGORY('','');
#807=PRODUCT_CONTEXT('',#809,'mechanical');
#808=APPLICATION_PROTOCOL_DEFINITION('international standard','ap242_managed_model_based_3d_engineering',2020,#809);
#809=APPLICATION_CONTEXT('managed model based 3d engineering');
ENDSEC;
END-ISO-10303-21;
